<svg xmlns="http://www.w3.org/2000/svg" xmlns:xlink="http://www.w3.org/1999/xlink" width="500" zoomAndPan="magnify" viewBox="0 0 375 374.999991" height="500" preserveAspectRatio="xMidYMid meet" version="1.0"><defs><g/><clipPath id="9363111160"><path d="M 98.582031 69.558594 L 276.441406 69.558594 L 276.441406 247.417969 L 98.582031 247.417969 Z M 98.582031 69.558594 " clip-rule="nonzero"/></clipPath><clipPath id="0e1632fcc3"><path d="M 92 17.496094 L 284.164062 17.496094 L 284.164062 137 L 92 137 Z M 92 17.496094 " clip-rule="nonzero"/></clipPath></defs><g clip-path="url(#9363111160)"><path fill="#3498bf" d="M 103.535156 187.785156 C 115.628906 222.511719 148.683594 247.390625 187.496094 247.390625 C 234.257812 247.390625 272.609375 211.28125 276.125 165.386719 C 271.460938 208.113281 218.074219 239.039062 179.722656 219.632812 C 176.613281 218.078125 173.792969 216.753906 172.238281 213.46875 C 169.761719 208.34375 168.898438 198.785156 175 189.109375 C 189.511719 166.132812 223.890625 156.746094 248.828125 155.59375 C 256.890625 155.191406 265.988281 155.308594 276.410156 156 C 275.03125 108.027344 235.753906 69.558594 187.496094 69.558594 C 138.433594 69.558594 98.582031 109.351562 98.582031 158.472656 C 98.640625 168.726562 100.367188 178.574219 103.535156 187.785156 M 130.140625 152.082031 C 133.539062 122.425781 158.761719 99.332031 189.339844 99.332031 C 209.898438 99.332031 228.039062 109.753906 238.75 125.59375 C 211.570312 120.8125 163.367188 124.382812 130.140625 152.082031 Z M 130.140625 152.082031 " fill-opacity="1" fill-rule="evenodd"/></g><g clip-path="url(#0e1632fcc3)"><path fill="#3498bf" d="M 236.167969 34.933594 L 189.34375 17.703125 L 188.796875 17.503906 L 188.246094 17.703125 L 141.417969 34.933594 L 93.503906 52.5625 L 103.5625 56.261719 L 115.171875 60.535156 C 112.652344 65.355469 110.316406 74.449219 113.472656 90.402344 C 111.054688 91.371094 109.347656 93.726562 109.347656 96.492188 C 109.347656 98.46875 110.222656 100.234375 111.605469 101.441406 C 110.171875 118.675781 98.515625 121.074219 94.703125 121.394531 C 93.507812 121.496094 92.425781 122.292969 92.136719 123.464844 C 90.90625 128.453125 104.445312 133.496094 112.484375 136.019531 C 116.035156 137.132812 119.894531 135.484375 121.496094 132.125 C 127.738281 119.011719 123.433594 106.480469 120.792969 100.875 C 121.835938 99.714844 122.476562 98.179688 122.476562 96.492188 C 122.476562 93.582031 120.582031 91.125 117.960938 90.261719 C 117.179688 83.925781 116.09375 69.902344 120.644531 62.550781 L 133.53125 67.292969 C 135.6875 59.894531 148.417969 57.257812 152.863281 56.34375 C 162.613281 54.332031 175.667969 53.21875 189.621094 53.21875 C 203.507812 53.21875 216.488281 54.320312 226.171875 56.324219 C 230.503906 57.21875 242.804688 59.761719 245.261719 66.847656 L 274.03125 56.265625 L 284.089844 52.566406 Z M 236.167969 34.933594 " fill-opacity="1" fill-rule="nonzero"/></g><path fill="#3498bf" d="M 137.367188 69.503906 L 137.367188 99.882812 C 152.304688 90.015625 170.210938 84.265625 189.460938 84.265625 C 208.707031 84.265625 226.609375 90.015625 241.550781 99.882812 L 241.550781 69.441406 C 241.546875 53.292969 137.359375 53.355469 137.367188 69.503906 Z M 137.367188 69.503906 " fill-opacity="1" fill-rule="nonzero"/><g fill="#0cc0df" fill-opacity="1"><g transform="translate(48.391477, 318.829548)"><g><path d="M 20.625 0.890625 C 17.0625 0.890625 13.910156 0.148438 11.171875 -1.328125 C 8.429688 -2.816406 6.296875 -4.882812 4.765625 -7.53125 C 3.242188 -10.1875 2.484375 -13.253906 2.484375 -16.734375 C 2.484375 -20.222656 3.253906 -23.28125 4.796875 -25.90625 C 6.347656 -28.539062 8.492188 -30.597656 11.234375 -32.078125 C 13.972656 -33.566406 17.144531 -34.3125 20.75 -34.3125 C 24.570312 -34.3125 27.867188 -33.460938 30.640625 -31.765625 C 33.421875 -30.066406 35.546875 -27.6875 37.015625 -24.625 C 38.484375 -21.570312 39.109375 -18.007812 38.890625 -13.9375 L 12.09375 -13.9375 C 12.5625 -11.644531 13.578125 -9.894531 15.140625 -8.6875 C 16.710938 -7.476562 18.601562 -6.875 20.8125 -6.875 C 22.425781 -6.875 23.898438 -7.179688 25.234375 -7.796875 C 26.578125 -8.410156 27.648438 -9.269531 28.453125 -10.375 L 38.25 -10.375 C 36.8125 -6.851562 34.539062 -4.09375 31.4375 -2.09375 C 28.34375 -0.101562 24.738281 0.890625 20.625 0.890625 Z M 12.15625 -20.046875 L 29.53125 -20.046875 C 28.976562 -22.085938 27.945312 -23.691406 26.4375 -24.859375 C 24.9375 -26.023438 23.0625 -26.609375 20.8125 -26.609375 C 18.6875 -26.609375 16.847656 -26.023438 15.296875 -24.859375 C 13.753906 -23.691406 12.707031 -22.085938 12.15625 -20.046875 Z M 12.15625 -20.046875 "/></g></g></g><g fill="#0cc0df" fill-opacity="1"><g transform="translate(89.706855, 318.829548)"><g><path d="M 19.484375 0.890625 C 16.171875 0.890625 13.238281 0.140625 10.6875 -1.359375 C 8.144531 -2.867188 6.140625 -4.945312 4.671875 -7.59375 C 3.210938 -10.25 2.484375 -13.296875 2.484375 -16.734375 C 2.484375 -20.171875 3.210938 -23.207031 4.671875 -25.84375 C 6.140625 -28.476562 8.144531 -30.546875 10.6875 -32.046875 C 13.238281 -33.554688 16.171875 -34.3125 19.484375 -34.3125 C 21.554688 -34.3125 23.484375 -34.003906 25.265625 -33.390625 C 27.046875 -32.773438 28.660156 -31.914062 30.109375 -30.8125 L 30.109375 -47.109375 L 39.78125 -47.109375 L 39.78125 0 L 32.59375 0 L 31.453125 -3.8125 C 29.960938 -2.332031 28.195312 -1.175781 26.15625 -0.34375 C 24.125 0.476562 21.898438 0.890625 19.484375 0.890625 Z M 12.03125 -16.734375 C 12.03125 -14.023438 12.890625 -11.800781 14.609375 -10.0625 C 16.328125 -8.320312 18.546875 -7.453125 21.265625 -7.453125 C 23.972656 -7.453125 26.175781 -8.320312 27.875 -10.0625 C 29.570312 -11.800781 30.421875 -14.023438 30.421875 -16.734375 C 30.421875 -19.453125 29.570312 -21.679688 27.875 -23.421875 C 26.175781 -25.160156 23.972656 -26.03125 21.265625 -26.03125 C 18.546875 -26.03125 16.328125 -25.160156 14.609375 -23.421875 C 12.890625 -21.679688 12.03125 -19.453125 12.03125 -16.734375 Z M 12.03125 -16.734375 "/></g></g></g><g fill="#0cc0df" fill-opacity="1"><g transform="translate(134.332554, 318.829548)"><g><path d="M 18.140625 0.890625 C 13.816406 0.890625 10.410156 -0.476562 7.921875 -3.21875 C 5.441406 -5.957031 4.203125 -9.640625 4.203125 -14.265625 L 4.203125 -33.421875 L 13.875 -33.421875 L 13.875 -15.21875 C 13.875 -12.75 14.457031 -10.835938 15.625 -9.484375 C 16.789062 -8.128906 18.394531 -7.453125 20.4375 -7.453125 C 22.644531 -7.453125 24.40625 -8.210938 25.71875 -9.734375 C 27.03125 -11.265625 27.6875 -13.347656 27.6875 -15.984375 L 27.6875 -33.421875 L 37.359375 -33.421875 L 37.359375 0 L 30.171875 0 L 29.15625 -3.75 C 27.84375 -2.1875 26.226562 -1.019531 24.3125 -0.25 C 22.40625 0.507812 20.347656 0.890625 18.140625 0.890625 Z M 18.140625 0.890625 "/></g></g></g><g fill="#0cc0df" fill-opacity="1"><g transform="translate(176.539169, 318.829548)"><g><path d="M 14.453125 0 L 0.578125 -33.421875 L 11.140625 -33.421875 L 14.890625 -22.921875 L 19.34375 -11.578125 L 23.75 -22.921875 L 27.5625 -33.421875 L 38.0625 -33.421875 L 24.125 0 Z M 14.453125 0 "/></g></g></g><g fill="#0cc0df" fill-opacity="1"><g transform="translate(215.180822, 318.829548)"><g><path d="M 15.984375 0.640625 C 12.035156 0.640625 8.914062 -0.28125 6.625 -2.125 C 4.332031 -3.976562 3.1875 -6.515625 3.1875 -9.734375 C 3.1875 -12.835938 4.210938 -15.3125 6.265625 -17.15625 C 8.328125 -19 11.097656 -19.921875 14.578125 -19.921875 L 26.671875 -19.921875 L 26.671875 -21.453125 C 26.671875 -23.109375 26.078125 -24.429688 24.890625 -25.421875 C 23.703125 -26.421875 22.15625 -26.921875 20.25 -26.921875 C 18.675781 -26.921875 17.335938 -26.5625 16.234375 -25.84375 C 15.128906 -25.125 14.425781 -24.171875 14.125 -22.984375 L 4.84375 -22.984375 C 5.4375 -26.628906 7.078125 -29.425781 9.765625 -31.375 C 12.460938 -33.332031 15.929688 -34.3125 20.171875 -34.3125 C 25.179688 -34.3125 29.097656 -33.046875 31.921875 -30.515625 C 34.742188 -27.992188 36.15625 -24.523438 36.15625 -20.109375 L 36.15625 0 L 28.96875 0 L 27.875 -3.890625 C 24.945312 -0.867188 20.984375 0.640625 15.984375 0.640625 Z M 12.734375 -10.125 C 12.734375 -8.976562 13.226562 -8.050781 14.21875 -7.34375 C 15.21875 -6.644531 16.546875 -6.296875 18.203125 -6.296875 C 20.617188 -6.296875 22.625 -6.992188 24.21875 -8.390625 C 25.8125 -9.796875 26.648438 -11.625 26.734375 -13.875 L 17.5625 -13.875 C 16.125 -13.875 14.957031 -13.535156 14.0625 -12.859375 C 13.175781 -12.179688 12.734375 -11.269531 12.734375 -10.125 Z M 12.734375 -10.125 "/></g></g></g><g fill="#0cc0df" fill-opacity="1"><g transform="translate(255.541307, 318.829548)"><g><path d="M 20.9375 0 C 16.695312 0 13.441406 -1.09375 11.171875 -3.28125 C 8.898438 -5.46875 7.765625 -8.597656 7.765625 -12.671875 L 7.765625 -25.53125 L 1.265625 -25.53125 L 1.265625 -33.421875 L 4.265625 -33.421875 C 6.085938 -33.421875 7.328125 -33.71875 7.984375 -34.3125 C 8.640625 -34.90625 9.097656 -36.050781 9.359375 -37.75 L 9.9375 -42.078125 L 17.4375 -42.078125 L 17.4375 -33.421875 L 26.609375 -33.421875 L 26.609375 -25.53125 L 17.4375 -25.53125 L 17.4375 -14.125 C 17.4375 -10.3125 19.304688 -8.40625 23.046875 -8.40625 L 27.046875 -8.40625 L 27.046875 0 Z M 20.9375 0 "/></g></g></g><g fill="#0cc0df" fill-opacity="1"><g transform="translate(285.270549, 318.829548)"><g><path d="M 20.625 0.890625 C 17.0625 0.890625 13.910156 0.148438 11.171875 -1.328125 C 8.429688 -2.816406 6.296875 -4.882812 4.765625 -7.53125 C 3.242188 -10.1875 2.484375 -13.253906 2.484375 -16.734375 C 2.484375 -20.222656 3.253906 -23.28125 4.796875 -25.90625 C 6.347656 -28.539062 8.492188 -30.597656 11.234375 -32.078125 C 13.972656 -33.566406 17.144531 -34.3125 20.75 -34.3125 C 24.570312 -34.3125 27.867188 -33.460938 30.640625 -31.765625 C 33.421875 -30.066406 35.546875 -27.6875 37.015625 -24.625 C 38.484375 -21.570312 39.109375 -18.007812 38.890625 -13.9375 L 12.09375 -13.9375 C 12.5625 -11.644531 13.578125 -9.894531 15.140625 -8.6875 C 16.710938 -7.476562 18.601562 -6.875 20.8125 -6.875 C 22.425781 -6.875 23.898438 -7.179688 25.234375 -7.796875 C 26.578125 -8.410156 27.648438 -9.269531 28.453125 -10.375 L 38.25 -10.375 C 36.8125 -6.851562 34.539062 -4.09375 31.4375 -2.09375 C 28.34375 -0.101562 24.738281 0.890625 20.625 0.890625 Z M 12.15625 -20.046875 L 29.53125 -20.046875 C 28.976562 -22.085938 27.945312 -23.691406 26.4375 -24.859375 C 24.9375 -26.023438 23.0625 -26.609375 20.8125 -26.609375 C 18.6875 -26.609375 16.847656 -26.023438 15.296875 -24.859375 C 13.753906 -23.691406 12.707031 -22.085938 12.15625 -20.046875 Z M 12.15625 -20.046875 "/></g></g></g><g fill="#0cc0df" fill-opacity="1"><g transform="translate(64.843946, 352.121928)"><g><path d="M 2 0 L 2 -13.6875 L 3.59375 -13.6875 L 8.984375 -5.578125 L 14.3125 -13.6875 L 15.921875 -13.6875 L 15.921875 0 L 14.203125 0 L 14.203125 -10.46875 L 9.65625 -3.640625 L 8.25 -3.640625 L 3.71875 -10.484375 L 3.71875 0 Z M 2 0 "/></g></g></g><g fill="#0cc0df" fill-opacity="1"><g transform="translate(84.585282, 352.121928)"><g><path d="M 2 0 L 2 -13.6875 L 10.3125 -13.6875 L 10.3125 -12.09375 L 3.71875 -12.09375 L 3.71875 -7.765625 L 9.828125 -7.765625 L 9.828125 -6.1875 L 3.71875 -6.1875 L 3.71875 -1.609375 L 10.53125 -1.609375 L 10.53125 0 Z M 2 0 "/></g></g></g><g fill="#0cc0df" fill-opacity="1"><g transform="translate(98.202836, 352.121928)"><g><path d="M 2 0 L 2 -13.6875 L 3.625 -13.6875 L 11.1875 -2.96875 L 11.1875 -13.6875 L 12.875 -13.6875 L 12.875 0 L 11.265625 0 L 3.703125 -10.71875 L 3.703125 0 Z M 2 0 "/></g></g></g><g fill="#0cc0df" fill-opacity="1"><g transform="translate(114.892065, 352.121928)"><g><path d="M 5.296875 0 L 5.296875 -12.046875 L 0.671875 -12.046875 L 0.671875 -13.6875 L 11.640625 -13.6875 L 11.640625 -12.046875 L 7.015625 -12.046875 L 7.015625 0 Z M 5.296875 0 "/></g></g></g><g fill="#0cc0df" fill-opacity="1"><g transform="translate(129.037861, 352.121928)"><g><path d="M 8.21875 0.25 C 6.832031 0.25 5.601562 -0.0507812 4.53125 -0.65625 C 3.46875 -1.257812 2.632812 -2.09375 2.03125 -3.15625 C 1.4375 -4.226562 1.140625 -5.457031 1.140625 -6.84375 C 1.140625 -8.238281 1.4375 -9.46875 2.03125 -10.53125 C 2.632812 -11.59375 3.46875 -12.425781 4.53125 -13.03125 C 5.601562 -13.644531 6.832031 -13.953125 8.21875 -13.953125 C 9.613281 -13.953125 10.84375 -13.644531 11.90625 -13.03125 C 12.96875 -12.425781 13.800781 -11.59375 14.40625 -10.53125 C 15.007812 -9.46875 15.3125 -8.238281 15.3125 -6.84375 C 15.3125 -5.457031 15.007812 -4.226562 14.40625 -3.15625 C 13.800781 -2.09375 12.96875 -1.257812 11.90625 -0.65625 C 10.84375 -0.0507812 9.613281 0.25 8.21875 0.25 Z M 2.890625 -6.84375 C 2.890625 -5.789062 3.113281 -4.859375 3.5625 -4.046875 C 4.019531 -3.242188 4.648438 -2.613281 5.453125 -2.15625 C 6.253906 -1.695312 7.175781 -1.46875 8.21875 -1.46875 C 9.269531 -1.46875 10.191406 -1.695312 10.984375 -2.15625 C 11.785156 -2.613281 12.410156 -3.242188 12.859375 -4.046875 C 13.304688 -4.859375 13.53125 -5.789062 13.53125 -6.84375 C 13.53125 -7.914062 13.304688 -8.851562 12.859375 -9.65625 C 12.410156 -10.457031 11.785156 -11.082031 10.984375 -11.53125 C 10.191406 -11.988281 9.269531 -12.21875 8.21875 -12.21875 C 7.175781 -12.21875 6.253906 -11.988281 5.453125 -11.53125 C 4.648438 -11.082031 4.019531 -10.457031 3.5625 -9.65625 C 3.113281 -8.851562 2.890625 -7.914062 2.890625 -6.84375 Z M 2.890625 -6.84375 "/></g></g></g><g fill="#0cc0df" fill-opacity="1"><g transform="translate(147.292268, 352.121928)"><g><path d="M 2 0 L 2 -13.6875 L 7.21875 -13.6875 C 8.164062 -13.6875 8.992188 -13.507812 9.703125 -13.15625 C 10.410156 -12.800781 10.957031 -12.296875 11.34375 -11.640625 C 11.738281 -10.984375 11.9375 -10.203125 11.9375 -9.296875 C 11.9375 -8.179688 11.648438 -7.257812 11.078125 -6.53125 C 10.503906 -5.8125 9.710938 -5.332031 8.703125 -5.09375 L 12.140625 0 L 10.078125 0 L 6.734375 -4.90625 L 3.71875 -4.90625 L 3.71875 0 Z M 3.71875 -6.546875 L 7.015625 -6.546875 C 8.023438 -6.546875 8.800781 -6.785156 9.34375 -7.265625 C 9.894531 -7.742188 10.171875 -8.421875 10.171875 -9.296875 C 10.171875 -10.171875 9.894531 -10.847656 9.34375 -11.328125 C 8.800781 -11.804688 8.023438 -12.046875 7.015625 -12.046875 L 3.71875 -12.046875 Z M 3.71875 -6.546875 "/></g></g></g><g fill="#0cc0df" fill-opacity="1"><g transform="translate(162.435866, 352.121928)"><g><path d="M 6.546875 0.25 C 5.453125 0.25 4.503906 0.0664062 3.703125 -0.296875 C 2.898438 -0.671875 2.28125 -1.191406 1.84375 -1.859375 C 1.40625 -2.535156 1.179688 -3.316406 1.171875 -4.203125 L 2.890625 -4.203125 C 2.921875 -3.328125 3.269531 -2.640625 3.9375 -2.140625 C 4.613281 -1.640625 5.484375 -1.390625 6.546875 -1.390625 C 7.515625 -1.390625 8.28125 -1.578125 8.84375 -1.953125 C 9.414062 -2.335938 9.703125 -2.867188 9.703125 -3.546875 C 9.703125 -4.179688 9.425781 -4.691406 8.875 -5.078125 C 8.332031 -5.460938 7.441406 -5.796875 6.203125 -6.078125 C 4.515625 -6.484375 3.28125 -7.003906 2.5 -7.640625 C 1.71875 -8.273438 1.328125 -9.117188 1.328125 -10.171875 C 1.328125 -11.328125 1.765625 -12.242188 2.640625 -12.921875 C 3.523438 -13.609375 4.71875 -13.953125 6.21875 -13.953125 C 7.757812 -13.953125 8.972656 -13.566406 9.859375 -12.796875 C 10.753906 -12.023438 11.210938 -10.972656 11.234375 -9.640625 L 9.53125 -9.640625 C 9.507812 -10.460938 9.203125 -11.113281 8.609375 -11.59375 C 8.023438 -12.070312 7.226562 -12.3125 6.21875 -12.3125 C 5.238281 -12.3125 4.472656 -12.117188 3.921875 -11.734375 C 3.367188 -11.347656 3.09375 -10.828125 3.09375 -10.171875 C 3.09375 -9.609375 3.347656 -9.132812 3.859375 -8.75 C 4.378906 -8.363281 5.300781 -8.007812 6.625 -7.6875 C 8.375 -7.257812 9.617188 -6.722656 10.359375 -6.078125 C 11.109375 -5.429688 11.484375 -4.601562 11.484375 -3.59375 C 11.484375 -2.40625 11.035156 -1.46875 10.140625 -0.78125 C 9.242188 -0.09375 8.046875 0.25 6.546875 0.25 Z M 6.546875 0.25 "/></g></g></g><g fill="#0cc0df" fill-opacity="1"><g transform="translate(176.91426, 352.121928)"><g><path d="M 10.96875 0 L 10.96875 -6.15625 L 3.71875 -6.15625 L 3.71875 0 L 2 0 L 2 -13.6875 L 3.71875 -13.6875 L 3.71875 -7.8125 L 10.96875 -7.8125 L 10.96875 -13.6875 L 12.703125 -13.6875 L 12.703125 0 Z M 10.96875 0 "/></g></g></g><g fill="#0cc0df" fill-opacity="1"><g transform="translate(193.4274, 352.121928)"><g><path d="M 2 0 L 2 -13.6875 L 3.71875 -13.6875 L 3.71875 0 Z M 2 0 "/></g></g></g><g fill="#0cc0df" fill-opacity="1"><g transform="translate(200.960294, 352.121928)"><g><path d="M 2 0 L 2 -13.6875 L 6.625 -13.6875 C 7.65625 -13.6875 8.550781 -13.5 9.3125 -13.125 C 10.082031 -12.75 10.675781 -12.21875 11.09375 -11.53125 C 11.507812 -10.84375 11.71875 -10.03125 11.71875 -9.09375 C 11.71875 -8.15625 11.507812 -7.34375 11.09375 -6.65625 C 10.675781 -5.976562 10.082031 -5.445312 9.3125 -5.0625 C 8.550781 -4.6875 7.65625 -4.5 6.625 -4.5 L 3.71875 -4.5 L 3.71875 0 Z M 3.71875 -6.109375 L 6.59375 -6.109375 C 8.832031 -6.109375 9.953125 -7.097656 9.953125 -9.078125 C 9.953125 -11.054688 8.832031 -12.046875 6.59375 -12.046875 L 3.71875 -12.046875 Z M 3.71875 -6.109375 "/></g></g></g><g fill="#0cc0df" fill-opacity="1"><g transform="translate(215.282171, 352.121928)"><g/></g></g><g fill="#0cc0df" fill-opacity="1"><g transform="translate(221.954208, 352.121928)"><g><path d="M 2 0 L 2 -13.6875 L 6.625 -13.6875 C 7.65625 -13.6875 8.550781 -13.5 9.3125 -13.125 C 10.082031 -12.75 10.675781 -12.21875 11.09375 -11.53125 C 11.507812 -10.84375 11.71875 -10.03125 11.71875 -9.09375 C 11.71875 -8.15625 11.507812 -7.34375 11.09375 -6.65625 C 10.675781 -5.976562 10.082031 -5.445312 9.3125 -5.0625 C 8.550781 -4.6875 7.65625 -4.5 6.625 -4.5 L 3.71875 -4.5 L 3.71875 0 Z M 3.71875 -6.109375 L 6.59375 -6.109375 C 8.832031 -6.109375 9.953125 -7.097656 9.953125 -9.078125 C 9.953125 -11.054688 8.832031 -12.046875 6.59375 -12.046875 L 3.71875 -12.046875 Z M 3.71875 -6.109375 "/></g></g></g><g fill="#0cc0df" fill-opacity="1"><g transform="translate(236.276085, 352.121928)"><g><path d="M 8.21875 0.25 C 6.832031 0.25 5.601562 -0.0507812 4.53125 -0.65625 C 3.46875 -1.257812 2.632812 -2.09375 2.03125 -3.15625 C 1.4375 -4.226562 1.140625 -5.457031 1.140625 -6.84375 C 1.140625 -8.238281 1.4375 -9.46875 2.03125 -10.53125 C 2.632812 -11.59375 3.46875 -12.425781 4.53125 -13.03125 C 5.601562 -13.644531 6.832031 -13.953125 8.21875 -13.953125 C 9.613281 -13.953125 10.84375 -13.644531 11.90625 -13.03125 C 12.96875 -12.425781 13.800781 -11.59375 14.40625 -10.53125 C 15.007812 -9.46875 15.3125 -8.238281 15.3125 -6.84375 C 15.3125 -5.457031 15.007812 -4.226562 14.40625 -3.15625 C 13.800781 -2.09375 12.96875 -1.257812 11.90625 -0.65625 C 10.84375 -0.0507812 9.613281 0.25 8.21875 0.25 Z M 2.890625 -6.84375 C 2.890625 -5.789062 3.113281 -4.859375 3.5625 -4.046875 C 4.019531 -3.242188 4.648438 -2.613281 5.453125 -2.15625 C 6.253906 -1.695312 7.175781 -1.46875 8.21875 -1.46875 C 9.269531 -1.46875 10.191406 -1.695312 10.984375 -2.15625 C 11.785156 -2.613281 12.410156 -3.242188 12.859375 -4.046875 C 13.304688 -4.859375 13.53125 -5.789062 13.53125 -6.84375 C 13.53125 -7.914062 13.304688 -8.851562 12.859375 -9.65625 C 12.410156 -10.457031 11.785156 -11.082031 10.984375 -11.53125 C 10.191406 -11.988281 9.269531 -12.21875 8.21875 -12.21875 C 7.175781 -12.21875 6.253906 -11.988281 5.453125 -11.53125 C 4.648438 -11.082031 4.019531 -10.457031 3.5625 -9.65625 C 3.113281 -8.851562 2.890625 -7.914062 2.890625 -6.84375 Z M 2.890625 -6.84375 "/></g></g></g><g fill="#0cc0df" fill-opacity="1"><g transform="translate(254.530493, 352.121928)"><g><path d="M 2 0 L 2 -13.6875 L 7.21875 -13.6875 C 8.164062 -13.6875 8.992188 -13.507812 9.703125 -13.15625 C 10.410156 -12.800781 10.957031 -12.296875 11.34375 -11.640625 C 11.738281 -10.984375 11.9375 -10.203125 11.9375 -9.296875 C 11.9375 -8.179688 11.648438 -7.257812 11.078125 -6.53125 C 10.503906 -5.8125 9.710938 -5.332031 8.703125 -5.09375 L 12.140625 0 L 10.078125 0 L 6.734375 -4.90625 L 3.71875 -4.90625 L 3.71875 0 Z M 3.71875 -6.546875 L 7.015625 -6.546875 C 8.023438 -6.546875 8.800781 -6.785156 9.34375 -7.265625 C 9.894531 -7.742188 10.171875 -8.421875 10.171875 -9.296875 C 10.171875 -10.171875 9.894531 -10.847656 9.34375 -11.328125 C 8.800781 -11.804688 8.023438 -12.046875 7.015625 -12.046875 L 3.71875 -12.046875 Z M 3.71875 -6.546875 "/></g></g></g><g fill="#0cc0df" fill-opacity="1"><g transform="translate(269.67409, 352.121928)"><g><path d="M 5.296875 0 L 5.296875 -12.046875 L 0.671875 -12.046875 L 0.671875 -13.6875 L 11.640625 -13.6875 L 11.640625 -12.046875 L 7.015625 -12.046875 L 7.015625 0 Z M 5.296875 0 "/></g></g></g><g fill="#0cc0df" fill-opacity="1"><g transform="translate(283.819882, 352.121928)"><g><path d="M 0.328125 0 L 5.96875 -13.6875 L 7.578125 -13.6875 L 13.203125 0 L 11.390625 0 L 10.09375 -3.109375 L 3.421875 -3.109375 L 2.171875 0 Z M 4.09375 -4.71875 L 9.453125 -4.71875 L 6.765625 -11.28125 Z M 4.09375 -4.71875 "/></g></g></g><g fill="#0cc0df" fill-opacity="1"><g transform="translate(299.178701, 352.121928)"><g><path d="M 2 0 L 2 -13.6875 L 3.71875 -13.6875 L 3.71875 -1.640625 L 10.375 -1.640625 L 10.375 0 Z M 2 0 "/></g></g></g></svg>