<svg xmlns="http://www.w3.org/2000/svg" xmlns:xlink="http://www.w3.org/1999/xlink" width="500" zoomAndPan="magnify" viewBox="0 0 375 374.999991" height="500" preserveAspectRatio="xMidYMid meet" version="1.0"><defs><clipPath id="2a25d9efd6"><path d="M 75.015625 107.949219 L 300 107.949219 L 300 332.945312 L 75.015625 332.945312 Z M 75.015625 107.949219 " clip-rule="nonzero"/></clipPath><clipPath id="253d19e057"><path d="M 66 42.085938 L 309.78125 42.085938 L 309.78125 193 L 66 193 Z M 66 42.085938 " clip-rule="nonzero"/></clipPath></defs><rect x="-37.5" width="450" fill="#ffffff" y="-37.499999" height="449.999989" fill-opacity="1"/><rect x="-37.5" width="450" fill="#fffdfb" y="-37.499999" height="449.999989" fill-opacity="1"/><g clip-path="url(#2a25d9efd6)"><path fill="#3498bf" d="M 81.28125 257.507812 C 96.578125 301.4375 138.394531 332.90625 187.496094 332.90625 C 246.652344 332.90625 295.167969 287.230469 299.613281 229.167969 C 293.710938 283.222656 226.179688 322.34375 177.660156 297.792969 C 173.726562 295.828125 170.160156 294.152344 168.191406 290 C 165.058594 283.515625 163.964844 271.421875 171.6875 259.183594 C 190.046875 230.117188 233.539062 218.242188 265.082031 216.785156 C 275.28125 216.273438 286.789062 216.421875 299.976562 217.296875 C 298.226562 156.609375 248.542969 107.949219 187.496094 107.949219 C 125.429688 107.949219 75.015625 158.285156 75.015625 220.425781 C 75.089844 233.394531 77.273438 245.851562 81.28125 257.507812 M 114.9375 212.339844 C 119.234375 174.824219 151.144531 145.609375 189.828125 145.609375 C 215.835938 145.609375 238.78125 158.796875 252.332031 178.832031 C 217.949219 172.785156 156.972656 177.300781 114.9375 212.339844 Z M 114.9375 212.339844 " fill-opacity="1" fill-rule="evenodd"/></g><g clip-path="url(#253d19e057)"><path fill="#3498bf" d="M 249.066406 64.144531 L 189.832031 42.347656 L 189.140625 42.097656 L 188.445312 42.347656 L 129.203125 64.144531 L 68.589844 86.445312 L 81.3125 91.125 L 96 96.53125 C 92.816406 102.625 89.863281 114.128906 93.851562 134.3125 C 90.796875 135.539062 88.636719 138.519531 88.636719 142.015625 C 88.636719 144.515625 89.742188 146.75 91.488281 148.277344 C 89.675781 170.078125 74.933594 173.117188 70.109375 173.519531 C 68.59375 173.648438 67.226562 174.65625 66.859375 176.136719 C 65.304688 182.449219 82.433594 188.828125 92.601562 192.019531 C 97.09375 193.429688 101.976562 191.347656 104 187.09375 C 111.898438 170.507812 106.453125 154.652344 103.113281 147.5625 C 104.433594 146.09375 105.242188 144.152344 105.242188 142.019531 C 105.242188 138.339844 102.84375 135.226562 99.53125 134.136719 C 98.542969 126.121094 97.167969 108.378906 102.925781 99.082031 L 119.226562 105.078125 C 121.953125 95.71875 138.0625 92.386719 143.683594 91.230469 C 156.019531 88.683594 172.53125 87.277344 190.183594 87.277344 C 207.75 87.277344 224.171875 88.671875 236.417969 91.203125 C 241.902344 92.335938 257.460938 95.550781 260.570312 104.515625 L 296.964844 91.128906 L 309.6875 86.449219 Z M 249.066406 64.144531 " fill-opacity="1" fill-rule="nonzero"/></g><path fill="#3498bf" d="M 124.078125 107.878906 L 124.078125 146.308594 C 142.976562 133.824219 165.628906 126.550781 189.980469 126.550781 C 214.328125 126.550781 236.976562 133.824219 255.878906 146.308594 L 255.878906 107.796875 C 255.871094 87.367188 124.070312 87.449219 124.078125 107.878906 Z M 124.078125 107.878906 " fill-opacity="1" fill-rule="nonzero"/></svg>